<?xml version="1.0" encoding="UTF-8"?>
<svg width="256" height="256" viewBox="0 0 256 256" xmlns="http://www.w3.org/2000/svg">
  <!-- Background circle -->
  <circle cx="128" cy="128" r="120" fill="#2c3e50"/>
  
  <!-- Microphone body -->
  <rect x="108" y="70" width="40" height="70" rx="20" fill="#3498db"/>
  
  <!-- Microphone bottom -->
  <path d="M 90 140 Q 90 170 128 170 Q 166 170 166 140" 
        stroke="#3498db" stroke-width="8" fill="none" stroke-linecap="round"/>
  
  <!-- Microphone stand -->
  <rect x="124" y="170" width="8" height="30" fill="#3498db"/>
  <rect x="108" y="195" width="40" height="8" fill="#3498db"/>
  
  <!-- Sound waves -->
  <path d="M 55 128 Q 50 128 50 118 Q 50 108 55 108" 
        stroke="#e74c3c" stroke-width="6" fill="none" stroke-linecap="round"/>
  <path d="M 201 128 Q 206 128 206 118 Q 206 108 201 108" 
        stroke="#e74c3c" stroke-width="6" fill="none" stroke-linecap="round"/>
  
  <path d="M 70 128 Q 65 128 65 113 Q 65 98 70 98" 
        stroke="#e74c3c" stroke-width="5" fill="none" stroke-linecap="round"/>
  <path d="M 186 128 Q 191 128 191 113 Q 191 98 186 98" 
        stroke="#e74c3c" stroke-width="5" fill="none" stroke-linecap="round"/>
</svg>

